<?xml version="1.0" encoding="utf-8"?>
<!-- Generator: Adobe Illustrator 27.9.1, SVG Export Plug-In . SVG Version: 6.00 Build 0)  -->
<svg version="1.1" id="Two_lines" xmlns="http://www.w3.org/2000/svg" xmlns:xlink="http://www.w3.org/1999/xlink" x="0px" y="0px"
	 viewBox="0 0 901.7 162.6" style="enable-background:new 0 0 901.7 162.6;" xml:space="preserve">
<style type="text/css">
	.st0{fill:#FFFFFF;}
	.st1{fill:#EE0000;}
</style>
<g id="Two_line_logo">
	<g>
		<path class="st0" d="M318.6,65.2v-56h25.4c2.9,0,5.5,0.4,7.8,1.3c2.3,0.9,4.3,2,5.9,3.5c1.6,1.5,2.8,3.2,3.7,5.2
			c0.9,2,1.3,4.2,1.3,6.6c0,3.6-1,6.8-3.1,9.5c-2.1,2.7-4.9,4.7-8.4,5.8l12.5,24.1h-9.3l-11.6-23H327v23H318.6z M343.3,16.6H327
			v18.7h16.3c3.5,0,6.2-0.9,8.1-2.7c1.9-1.8,2.8-4,2.8-6.6c0-2.6-0.9-4.8-2.8-6.6C349.6,17.5,346.9,16.6,343.3,16.6z"/>
		<path class="st0" d="M366.1,44.8c0-2.9,0.5-5.6,1.6-8.2s2.5-4.8,4.3-6.7c1.8-1.9,4-3.4,6.5-4.5c2.5-1.1,5.2-1.6,8-1.6
			c2.8,0,5.4,0.5,7.8,1.6c2.4,1.1,4.5,2.6,6.2,4.5c1.7,1.9,3.1,4.1,4.1,6.8c1,2.6,1.5,5.4,1.5,8.4v2.3H374c0.5,3.4,2.1,6.1,4.6,8.4
			c2.6,2.2,5.6,3.3,9.1,3.3c2,0,3.9-0.3,5.7-1c1.8-0.6,3.4-1.5,4.6-2.6l5.1,5c-2.4,1.9-4.9,3.2-7.4,4.1c-2.5,0.9-5.3,1.3-8.4,1.3
			c-3,0-5.8-0.5-8.4-1.6c-2.6-1.1-4.9-2.6-6.8-4.4c-1.9-1.9-3.4-4.1-4.5-6.7C366.6,50.6,366.1,47.8,366.1,44.8z M386.3,30.6
			c-3.1,0-5.8,1-8,3c-2.2,2-3.7,4.6-4.2,7.8h24.2c-0.5-3.1-1.9-5.7-4.2-7.8C391.8,31.6,389.2,30.6,386.3,30.6z"/>
		<path class="st0" d="M445.1,65.2v-3.8c-1.7,1.4-3.6,2.5-5.8,3.3c-2.1,0.8-4.4,1.2-6.7,1.2c-2.9,0-5.6-0.5-8.1-1.6
			c-2.5-1.1-4.7-2.6-6.5-4.5c-1.8-1.9-3.3-4.1-4.4-6.7c-1.1-2.6-1.6-5.3-1.6-8.2s0.5-5.6,1.6-8.2c1.1-2.6,2.5-4.8,4.4-6.7
			c1.8-1.9,4-3.4,6.6-4.5c2.5-1.1,5.3-1.6,8.2-1.6c2.3,0,4.5,0.3,6.6,1c2.1,0.7,4,1.7,5.7,3V9.2l8-1.8v57.8H445.1z M419.9,44.8
			c0,4,1.3,7.4,4,10.1c2.7,2.7,6,4.1,9.8,4.1c2.3,0,4.5-0.4,6.4-1.3c1.9-0.9,3.5-2.1,4.9-3.6V35.6c-1.3-1.4-2.9-2.6-4.9-3.5
			c-2-0.9-4.1-1.3-6.4-1.3c-3.9,0-7.2,1.3-9.9,4C421.2,37.5,419.9,40.8,419.9,44.8z"/>
		<path class="st0" d="M480.1,65.2v-56h8.4v24h29.8v-24h8.4v56h-8.4V40.8h-29.8v24.4H480.1z"/>
		<path class="st0" d="M549.2,66c-4.4,0-8-1.2-10.8-3.5c-2.8-2.3-4.2-5.3-4.2-8.9c0-4.1,1.6-7.1,4.7-9.2c3.1-2.1,7.1-3.2,11.8-3.2
			c2,0,3.9,0.2,5.8,0.6c1.9,0.4,3.7,0.9,5.3,1.6v-4.3c0-2.9-0.9-5-2.6-6.5c-1.7-1.4-4.2-2.2-7.4-2.2c-2,0-4,0.3-6,0.9
			c-2.1,0.6-4.3,1.4-6.6,2.6l-3-6c2.9-1.3,5.7-2.4,8.4-3.1c2.7-0.7,5.5-1.1,8.3-1.1c5.2,0,9.3,1.3,12.2,3.8
			c2.9,2.5,4.4,6.1,4.4,10.8v27h-7.8v-3.5c-1.8,1.4-3.7,2.5-5.8,3.2C553.9,65.6,551.6,66,549.2,66z M541.9,53.4c0,2,0.9,3.6,2.6,4.8
			c1.7,1.2,3.9,1.8,6.6,1.8c2.1,0,4.1-0.3,5.9-1c1.8-0.6,3.4-1.6,4.9-2.9v-7.1c-1.5-0.8-3.1-1.4-4.8-1.8c-1.7-0.4-3.6-0.6-5.7-0.6
			c-2.8,0-5,0.6-6.8,1.8C542.8,49.6,541.9,51.3,541.9,53.4z"/>
		<path class="st0" d="M582.6,55.2V31.2H574v-6.7h8.6V14.1l7.9-1.9v12.3h12v6.7h-12v22.1c0,2.1,0.5,3.5,1.4,4.4
			c0.9,0.9,2.5,1.3,4.6,1.3c1.2,0,2.2-0.1,3-0.2c0.9-0.1,1.8-0.4,2.8-0.8v6.7c-1.1,0.4-2.4,0.7-3.8,0.9c-1.4,0.2-2.7,0.3-3.8,0.3
			c-3.9,0-7-0.9-9-2.8C583.7,61.4,582.6,58.7,582.6,55.2z"/>
		<path class="st0" d="M318,93.2h21.5c16.8,0,29.6,12.3,29.6,28.2c0,15.6-12.8,27.8-29.6,27.8H318V93.2z M329.6,103.6v35.4h9.8
			c10,0,17.7-7.7,17.7-17.5c0-10-7.7-17.8-17.7-17.8H329.6z"/>
		<path class="st0" d="M396.6,106.8c12.5,0,22.2,9.5,22.2,21.7c0,12.2-9.8,21.6-22.2,21.6s-22.2-9.4-22.2-21.6
			C374.4,116.3,384.1,106.8,396.6,106.8z M396.6,116.3c-6.4,0-11.5,5.3-11.5,12.2c0,6.7,5,12.1,11.5,12.1s11.5-5.4,11.5-12.1
			C408.1,121.6,403.1,116.3,396.6,116.3z"/>
		<path class="st0" d="M455.9,135.8l6.6,6.8c-4.3,4.7-10.5,7.4-17,7.4c-12.3,0-21.8-9.4-21.8-21.6c0-12.2,9.5-21.7,21.8-21.7
			c6.6,0,13,2.7,17.3,7.4l-6.7,7.1c-3.1-3.4-6.5-5-10.3-5c-6.3,0-11.2,5.3-11.2,12.2c0,6.9,5,12,11.4,12
			C449.7,140.4,452.9,138.9,455.9,135.8z"/>
		<path class="st0" d="M478.9,131.9c0,5.2,3.4,8.7,8.7,8.7c3.7,0,6.6-1.4,8.6-4.2v-28.9h11v41.7h-11v-3.4c-3.1,2.7-7.1,4.2-11.7,4.2
			c-9.8,0-16.5-6.9-16.5-16.6v-25.9h10.9V131.9z"/>
		<path class="st0" d="M515.4,107.6h11v3.1c3-2.6,6.6-3.9,10.9-3.9c5.4,0,9.8,2.3,12.6,6.2c3.4-4,8.2-6.2,13.8-6.2
			c9.4,0,16,6.9,16,16.6v25.9h-11v-24.3c0-5.2-3-8.7-7.9-8.7c-3.4,0-6.1,1.4-8,4.2c0.2,0.9,0.2,1.9,0.2,3v25.9h-11v-24.3
			c0-5.2-3-8.7-7.8-8.7c-3.3,0-5.9,1.4-7.8,3.8v29.2h-11V107.6z"/>
		<path class="st0" d="M607.6,106.8c11.8,0,20.6,9.6,20.6,22.4v2.9h-31c1.5,5.2,6.1,8.7,11.8,8.7c3.7,0,7-1.2,9.2-3.4l7.2,6.6
			c-5.1,4.2-10.2,6-16.9,6c-12.6,0-22.4-9.4-22.4-21.6C586.1,116.4,595.5,106.8,607.6,106.8z M597.1,124.3h20.4
			c-1.4-5-5.3-8.4-10.2-8.4C602.3,115.9,598.5,119.2,597.1,124.3z"/>
		<path class="st0" d="M634.8,107.6h11v3.4c3.1-2.7,7.1-4.2,11.7-4.2c9.8,0,16.5,6.9,16.5,16.6v25.9H663v-24.3
			c0-5.2-3.4-8.7-8.7-8.7c-3.7,0-6.6,1.4-8.6,4.2v28.9h-11V107.6z"/>
		<path class="st0" d="M686.5,116.8h-8.6v-9.2h8.6V96.9l11-2.5v13.1h11.8v9.2h-11.8v18.5c0,3.9,1.5,5.4,5.8,5.4c2.2,0,3.8-0.3,5.8-1
			v9c-2.4,0.7-6.2,1.3-8.5,1.3c-9.1,0-14.1-4.2-14.1-12.4V116.8z"/>
		<path class="st0" d="M712.7,137.2c0-8.2,6.7-12.6,17.1-12.6c3.6,0,7,0.6,10.2,1.6v-3c0-4.9-3-7.3-8.8-7.3c-3.8,0-7.8,1.3-12.7,3.4
			l-4-8.1c6.5-3,12.4-4.5,18.6-4.5c11.1,0,17.8,5.4,17.8,15.4v27H740v-3c-3.5,2.6-7.4,3.7-12.1,3.7
			C718.7,150,712.7,144.5,712.7,137.2z M730.8,142.1c3.5,0,6.6-0.9,9.2-2.6v-6.2c-2.6-1-5.4-1.5-8.8-1.5c-4.8,0-8,1.8-8,5.2
			C723.2,140.1,726.1,142.1,730.8,142.1z"/>
		<path class="st0" d="M763.3,116.8h-8.6v-9.2h8.6V96.9l11-2.5v13.1h11.8v9.2h-11.8v18.5c0,3.9,1.5,5.4,5.8,5.4c2.2,0,3.8-0.3,5.8-1
			v9c-2.4,0.7-6.2,1.3-8.5,1.3c-9.1,0-14.1-4.2-14.1-12.4V116.8z"/>
		<path class="st0" d="M790.6,96.4c0-3.4,2.9-6.2,6.2-6.2c3.4,0,6.2,2.8,6.2,6.2c0,3.4-2.8,6.2-6.2,6.2
			C793.5,102.6,790.6,99.8,790.6,96.4z M802.4,149.2h-11v-41.7h11V149.2z"/>
		<path class="st0" d="M831.2,106.8c12.5,0,22.2,9.5,22.2,21.7c0,12.2-9.8,21.6-22.2,21.6c-12.5,0-22.2-9.4-22.2-21.6
			C808.9,116.3,818.7,106.8,831.2,106.8z M831.2,116.3c-6.4,0-11.5,5.3-11.5,12.2c0,6.7,5,12.1,11.5,12.1c6.5,0,11.5-5.4,11.5-12.1
			C842.7,121.6,837.7,116.3,831.2,116.3z"/>
		<path class="st0" d="M860,107.6h11v3.4c3.1-2.7,7.1-4.2,11.7-4.2c9.8,0,16.5,6.9,16.5,16.6v25.9h-10.9v-24.3
			c0-5.2-3.4-8.7-8.7-8.7c-3.7,0-6.6,1.4-8.6,4.2v28.9h-11V107.6z"/>
	</g>
	<g id="Hat_icon_00000045618092305533552560000002143508710270356625_">
		<g>
			<g>
				<path id="Red_hat_00000161592424872907619370000002653157389874771348_" class="st1" d="M129,92.2c12.5,0,30.6-2.6,30.6-17.5
					c0-1.2,0-2.3-0.3-3.4L151.8,39c-1.7-7.1-3.2-10.3-15.7-16.6c-9.7-5-30.8-13.1-37.1-13.1c-5.8,0-7.5,7.5-14.4,7.5
					c-6.7,0-11.6-5.6-17.9-5.6c-6,0-9.9,4.1-12.9,12.5c0,0-8.4,23.7-9.5,27.2C44,51.5,44,52.2,44,52.8C44,62,80.3,92.2,129,92.2z
					 M161.5,80.8c1.7,8.2,1.7,9.1,1.7,10.1c0,14-15.7,21.8-36.4,21.8c-46.8,0-87.7-27.4-87.7-45.5c0-2.8,0.6-5.4,1.5-7.3
					C23.8,60.8,2,63.8,2,83c0,31.5,74.6,70.3,133.7,70.3c45.3,0,56.7-20.5,56.7-36.6C192.3,103.9,181.4,89.4,161.5,80.8z"/>
				<path id="Black_band_00000069357014588671757980000003861270178962354826_" d="M161.5,80.8c1.7,8.2,1.7,9.1,1.7,10.1
					c0,14-15.7,21.8-36.4,21.8c-46.8,0-87.7-27.4-87.7-45.5c0-2.8,0.6-5.4,1.5-7.3l3.7-9.1C44,51.5,44,52.2,44,52.8
					C44,62,80.3,92.2,129,92.2c12.5,0,30.6-2.6,30.6-17.5c0-1.2,0-2.3-0.3-3.4L161.5,80.8z"/>
			</g>
		</g>
	</g>
	<path id="Dividing_line_00000119830090696107459890000015049356360382162309_" class="st0" d="M255.5,160.7c-1.2,0-2.2-1-2.2-2.2
		V4.2c0-1.2,1-2.2,2.2-2.2s2.2,1,2.2,2.2v154.2C257.7,159.7,256.7,160.7,255.5,160.7z"/>
</g>
</svg>
